<?xml version="1.0" encoding="UTF-8" standalone="no"?>
<svg
   xmlns:dc="http://purl.org/dc/elements/1.1/"
   xmlns:cc="http://creativecommons.org/ns#"
   xmlns:rdf="http://www.w3.org/1999/02/22-rdf-syntax-ns#"
   xmlns:svg="http://www.w3.org/2000/svg"
   xmlns="http://www.w3.org/2000/svg"
   xmlns:sodipodi="http://sodipodi.sourceforge.net/DTD/sodipodi-0.dtd"
   xmlns:inkscape="http://www.inkscape.org/namespaces/inkscape"
   inkscape:version="1.0 (4035a4fb49, 2020-05-01)"
   sodipodi:docname="logo.svg"
   id="svg42"
   preserveAspectRatio="xMidYMid meet"
   viewBox="0 0 892.000000 324.000000"
   height="324.000000pt"
   width="892.000000pt"
   version="1.0">
  <metadata
     id="metadata48">
    <rdf:RDF>
      <cc:Work
         rdf:about="">
        <dc:format>image/svg+xml</dc:format>
        <dc:type
           rdf:resource="http://purl.org/dc/dcmitype/StillImage" />
      </cc:Work>
    </rdf:RDF>
  </metadata>
  <defs
     id="defs46" />
  <sodipodi:namedview
     inkscape:current-layer="g40"
     inkscape:window-maximized="1"
     inkscape:window-y="-8"
     inkscape:window-x="1912"
     inkscape:cy="213.87189"
     inkscape:cx="499.97866"
     inkscape:zoom="0.9610426"
     showgrid="false"
     id="namedview44"
     inkscape:window-height="1017"
     inkscape:window-width="1920"
     inkscape:pageshadow="2"
     inkscape:pageopacity="0"
     guidetolerance="10"
     gridtolerance="10"
     objecttolerance="10"
     borderopacity="1"
     bordercolor="#666666"
     pagecolor="#ffffff" />
  <g
     inkscape:export-ydpi="98.059998"
     inkscape:export-xdpi="98.059998"
     inkscape:export-filename="C:\Users\alica\Google Drive\Belgelerim\Website\Logo\PNG\low\logo.png"
     id="g40"
     stroke="none"
     fill="#000000"
     transform="translate(0.000000,324.000000) scale(0.100000,-0.100000)">
    <path
       inkscape:export-ydpi="98.190002"
       inkscape:export-xdpi="98.190002"
       inkscape:export-filename="C:\Users\alica\Google Drive\Belgelerim\Website\Logo\PNG\low\logoonly.png"
       style="fill:#ef3945;fill-opacity:1"
       id="path2"
       d="M1183 2260 c-136 -32 -150 -151 -72 -620 34 -202 47 -246 79 -258 20 -8 20 -10 -17 -56 -21 -27 -50 -63 -65 -80 l-27 -31 -109 113 -109 112 -81 0 c-44 0 -83 -4 -87 -9 -3 -5 19 -33 48 -63 40 -40 71 -87 124 -193 76 -149 111 -193 164 -204 27 -5 39 -18 65 -62 36 -61 121 -152 162 -173 76 -39 383 -81 542 -73 132 7 349 42 400 65 19 9 64 45 100 81 79 80 131 178 138 256 4 50 1 61 -36 123 -22 37 -61 93 -86 123 -50 61 -54 69 -30 69 8 0 22 17 31 38 27 64 83 425 90 578 6 132 4 145 -16 187 -42 86 -131 103 -361 66 -194 -31 -384 -31 -572 -1 -139 22 -218 26 -275 12z m302 -85 c99 -14 214 -25 255 -25 41 0 156 11 255 25 203 28 239 30 284 14 50 -18 64 -56 69 -194 4 -120 -11 -288 -45 -480 -17 -99 -25 -114 -47 -96 -9 7 -21 11 -28 8 -7 -2 -23 5 -35 16 -21 19 -26 19 -135 7 -144 -17 -490 -17 -635 0 -108 12 -113 12 -138 -8 -14 -12 -32 -19 -40 -16 -7 3 -16 1 -20 -5 -9 -16 -23 -13 -34 8 -13 23 -48 261 -61 417 -13 146 -2 274 27 313 36 48 81 50 328 16z" />
    <path
       inkscape:export-ydpi="98.190002"
       inkscape:export-xdpi="98.190002"
       inkscape:export-filename="C:\Users\alica\Google Drive\Belgelerim\Website\Logo\PNG\low\logoonly.png"
       style="fill:#ef3945;fill-opacity:1"
       id="path4"
       d="M1673 1882 c-49 -38 -47 -97 5 -140 25 -21 26 -24 9 -36 -9 -7 -44 -19 -77 -25 -78 -16 -141 -44 -216 -97 -59 -41 -74 -60 -74 -88 0 -15 130 -32 315 -42 111 -6 399 8 486 24 34 7 35 8 27 38 -14 55 -163 141 -292 168 -38 8 -72 20 -76 27 -5 8 4 24 26 44 43 41 45 76 5 116 -24 23 -38 29 -73 29 -25 0 -52 -8 -65 -18z m115 -28 c27 -19 28 -48 2 -74 -39 -39 -120 -16 -120 33 0 50 70 75 118 41z" />
    <path
       style="fill:#ef3945;fill-opacity:1"
       id="path6"
       d="M2782 1818 l3 -273 23 -3 c21 -3 22 -1 22 81 l0 85 51 57 c29 30 56 54 61 53 4 -2 55 -64 111 -138 69 -91 110 -136 125 -138 12 -2 22 1 22 6 0 5 -48 72 -106 148 -59 76 -109 145 -111 151 -3 7 43 65 102 128 95 102 105 115 82 115 -20 0 -58 -34 -173 -155 -81 -85 -151 -155 -156 -155 -4 0 -8 70 -8 155 l0 155 -25 0 -25 0 2 -272z" />
    <path
       style="fill:#ef3945;fill-opacity:1"
       id="path8"
       d="M3592 1823 c-62 -147 -112 -271 -112 -275 0 -5 10 -8 23 -8 20 0 28 13 59 88 l35 87 129 0 128 0 37 -85 c27 -65 41 -86 58 -88 12 -2 21 2 21 10 0 7 -49 130 -109 273 -97 232 -111 260 -133 263 -23 3 -31 -13 -136 -265z m197 68 c28 -68 49 -126 47 -128 -2 -2 -53 -2 -114 -1 l-110 3 23 55 c12 30 37 90 55 133 18 43 36 75 40 70 5 -4 31 -64 59 -132z" />
    <path
       style="fill:#ef3945;fill-opacity:1"
       id="path10"
       d="M4200 2070 c0 -19 7 -20 100 -20 l100 0 0 -256 0 -255 23 3 22 3 3 253 2 252 95 0 c88 0 95 1 95 20 0 19 -7 20 -220 20 -213 0 -220 -1 -220 -20z" />
    <path
       style="fill:#ef3945;fill-opacity:1"
       id="path12"
       d="M4981 1823 c-61 -147 -111 -271 -111 -275 0 -5 10 -8 23 -8 20 0 29 12 58 88 l35 87 129 0 129 0 36 -85 c29 -68 40 -86 59 -88 31 -5 32 -7 -93 293 -93 224 -107 250 -128 253 -24 3 -31 -12 -137 -265z m198 67 c27 -68 49 -126 47 -127 -2 -2 -53 -2 -114 -1 l-110 3 47 115 c26 63 51 124 55 134 10 28 19 14 75 -124z" />
    <path
       style="fill:#ef3945;fill-opacity:1"
       id="path14"
       d="M5700 1816 l0 -276 25 0 25 0 0 105 0 105 84 0 84 0 67 -105 c55 -86 71 -105 91 -105 13 0 24 2 24 5 0 3 -29 51 -65 108 -62 98 -64 102 -42 110 77 29 119 145 83 230 -7 18 -28 46 -45 62 l-32 30 -150 3 -149 3 0 -275z m291 211 c37 -31 49 -59 49 -109 -1 -52 -16 -83 -56 -109 -24 -15 -47 -19 -131 -19 l-103 0 0 130 0 130 108 0 c96 -1 110 -3 133 -23z" />
    <path
       style="fill:#ef3945;fill-opacity:1"
       id="path16"
       d="M6390 2070 c0 -19 7 -20 100 -20 l100 0 0 -255 0 -255 25 0 25 0 0 255 0 255 100 0 c93 0 100 1 100 20 0 19 -7 20 -225 20 -218 0 -225 -1 -225 -20z" />
    <path
       style="fill:#ef3945;fill-opacity:1"
       id="path18"
       d="M7170 1815 l0 -275 25 0 25 0 0 275 0 275 -25 0 -25 0 0 -275z" />
    <path
       style="fill:#ef3945;fill-opacity:1"
       id="path20"
       d="M7610 1815 l0 -275 25 0 c25 0 25 1 25 88 l0 88 55 54 c49 48 56 52 67 38 7 -10 56 -74 108 -143 72 -95 100 -125 117 -125 13 0 23 3 23 8 0 4 -52 74 -115 156 l-115 149 69 76 c38 42 85 92 105 110 42 40 45 51 14 51 -17 0 -65 -45 -173 -161 l-150 -160 -3 160 -2 161 -25 0 -25 0 0 -275z" />
    <path
       style="fill:#ef3945;fill-opacity:1"
       id="path22"
       d="M2915 1396 c-41 -18 -90 -73 -110 -120 -53 -126 28 -299 151 -322 38 -7 38 -7 24 -35 -10 -17 -7 -19 24 -19 40 0 53 -14 35 -36 -9 -12 -24 -15 -51 -11 -21 3 -38 1 -38 -4 0 -5 22 -9 50 -9 38 0 52 4 60 19 15 30 2 51 -32 51 -48 0 -32 31 23 44 48 13 92 42 117 77 12 18 13 22 1 30 -10 6 -25 -2 -49 -25 -72 -69 -154 -70 -226 -4 -48 44 -66 86 -66 153 0 56 8 82 39 123 63 85 173 94 248 22 20 -20 35 -26 44 -21 19 12 -9 52 -58 79 -45 26 -138 29 -186 8z" />
    <path
       style="fill:#ef3945;fill-opacity:1"
       id="path24"
       d="M3593 1373 c-8 -21 -51 -123 -94 -226 -43 -104 -79 -191 -79 -194 0 -2 10 -3 21 -1 16 2 28 21 49 73 l28 70 108 0 108 0 31 -72 c24 -58 34 -73 51 -73 20 0 13 19 -74 230 -104 251 -117 268 -149 193z m86 -127 c23 -55 41 -103 41 -108 0 -4 -43 -8 -96 -8 -53 0 -94 4 -92 8 2 4 23 56 47 116 24 59 47 104 51 99 4 -4 26 -53 49 -107z" />
    <path
       style="fill:#ef3945;fill-opacity:1"
       id="path26"
       d="M4027 1398 c4 -7 45 -74 90 -147 l83 -135 0 -83 c0 -67 3 -83 15 -83 12 0 15 16 15 83 l0 82 90 145 c81 133 92 161 57 147 -7 -3 -46 -59 -87 -126 l-73 -122 -37 58 c-20 32 -54 88 -76 125 -30 52 -44 68 -62 68 -16 0 -21 -4 -15 -12z" />
    <path
       style="fill:#ef3945;fill-opacity:1"
       id="path28"
       d="M4700 1180 l0 -230 93 0 c113 0 157 12 204 53 49 43 73 98 73 173 0 71 -13 116 -48 163 -40 54 -90 71 -214 71 l-108 0 0 -230z m257 164 c53 -42 73 -87 73 -159 0 -74 -26 -134 -71 -166 -29 -20 -48 -25 -126 -27 l-93 -4 0 197 0 197 90 -4 c81 -4 93 -7 127 -34z" />
    <path
       style="fill:#ef3945;fill-opacity:1"
       id="path30"
       d="M5491 1388 c-5 -13 -48 -115 -95 -227 -47 -112 -86 -206 -86 -208 0 -2 9 -3 21 -1 16 2 29 22 52 76 l30 73 106 -3 106 -3 30 -72 c24 -59 34 -73 52 -73 21 0 20 4 -23 108 -25 59 -68 162 -96 230 -40 95 -55 122 -70 122 -10 0 -22 -10 -27 -22z m79 -143 c23 -58 40 -108 38 -111 -3 -3 -46 -3 -96 -2 l-90 3 45 112 c25 62 49 110 53 108 4 -3 27 -52 50 -110z" />
    <path
       style="fill:#ef3945;fill-opacity:1"
       id="path32"
       d="M6010 1180 c0 -222 1 -230 20 -230 19 0 20 8 22 190 l3 189 150 -189 c90 -113 157 -189 168 -190 16 0 17 17 17 230 0 222 -1 230 -20 230 -19 0 -20 -8 -22 -191 l-3 -191 -150 191 c-91 115 -157 190 -167 191 -17 0 -18 -17 -18 -230z" />
    <path
       style="fill:#ef3945;fill-opacity:1"
       id="path34"
       d="M6720 1180 l0 -230 155 0 c148 0 155 1 155 20 0 19 -7 20 -135 20 l-135 0 0 210 c0 203 -1 210 -20 210 -19 0 -20 -7 -20 -230z" />
    <path
       style="fill:#ef3945;fill-opacity:1"
       id="path36"
       d="M7310 1180 c0 -223 1 -230 20 -230 19 0 20 7 20 230 0 223 -1 230 -20 230 -19 0 -20 -7 -20 -230z" />
    <path
       style="fill:#ef3945;fill-opacity:1"
       id="path38"
       d="M7680 1180 c0 -223 1 -230 20 -230 18 0 20 7 20 73 0 73 0 73 43 115 23 23 46 42 49 42 4 0 46 -52 94 -115 56 -74 94 -115 105 -115 11 0 19 2 19 5 0 3 -43 62 -96 130 l-96 125 91 98 c67 72 86 98 73 101 -11 2 -61 -43 -149 -135 l-133 -139 0 138 c0 130 -1 137 -20 137 -19 0 -20 -7 -20 -230z" />
  </g>
</svg>
