<?xml version="1.0" standalone="no"?>
<!DOCTYPE svg PUBLIC "-//W3C//DTD SVG 20010904//EN"
 "http://www.w3.org/TR/2001/REC-SVG-20010904/DTD/svg10.dtd">
<svg version="1.0" xmlns="http://www.w3.org/2000/svg"
 width="700.000000pt" height="700.000000pt" viewBox="0 0 700.000000 700.000000"
 preserveAspectRatio="xMidYMid meet">
<metadata>
Created by potrace 1.14, written by Peter Selinger 2001-2017
</metadata>
<g transform="translate(0.000000,700.000000) scale(0.100000,-0.100000)"
fill="#000000" stroke="none">
<path d="M5373 6378 c-302 -197 -514 -482 -568 -763 -12 -61 -33 -191 -34
-212 -1 -8 -15 -8 -53 3 -29 7 -69 16 -88 19 -19 3 -58 9 -85 13 -52 9 -193 7
-232 -2 -13 -3 -23 0 -23 5 0 21 -53 79 -99 108 -91 59 -165 76 -317 74 -182
-2 -339 -58 -547 -197 -61 -41 -127 -86 -146 -100 -19 -14 -38 -26 -42 -26 -4
0 -11 15 -14 33 -24 109 -114 189 -220 195 -154 9 -440 -166 -572 -348 -75
-105 -93 -197 -55 -281 23 -51 71 -102 113 -121 16 -7 28 -16 27 -19 -2 -3
-58 -47 -124 -97 -118 -89 -277 -236 -342 -317 -54 -67 -112 -193 -119 -258
-9 -89 19 -169 82 -234 l51 -53 -23 -42 c-22 -43 -59 -143 -69 -189 -9 -42
-34 -192 -39 -239 -16 -136 -53 -260 -96 -320 -49 -67 -99 -84 -249 -85 -133
0 -230 9 -410 40 -68 11 -166 26 -208 31 -26 3 -60 7 -77 10 -16 2 -71 4 -120
4 -283 2 -510 -158 -606 -426 -21 -59 -31 -214 -21 -321 l4 -43 77 54 c95 67
134 80 220 73 170 -13 340 -97 874 -431 164 -102 299 -186 301 -186 3 0 37
-19 78 -43 76 -45 281 -147 295 -147 4 0 20 -6 34 -14 27 -14 158 -58 214 -72
17 -4 35 -8 40 -10 117 -29 258 -29 402 0 13 3 28 -1 35 -8 18 -17 212 -144
273 -178 311 -175 513 -241 735 -240 l105 0 47 -49 c54 -55 117 -90 204 -113
73 -19 259 -15 355 8 269 65 571 216 949 474 585 400 945 776 1040 1087 38
127 34 237 -16 361 -27 68 -27 77 0 201 13 59 52 151 76 178 72 81 221 320
312 500 82 165 172 398 203 526 56 234 70 351 70 559 0 217 -15 326 -70 517
-92 320 -308 643 -551 824 -32 24 -61 47 -64 50 -3 3 -50 33 -105 66 -199 119
-422 192 -631 208 -44 4 -84 8 -91 10 -7 2 -47 -19 -90 -47z m468 -558 c194
-35 385 -157 510 -327 66 -88 143 -258 164 -358 39 -180 48 -344 32 -535 -12
-134 -18 -159 -58 -253 -81 -189 -142 -269 -213 -282 -56 -11 -68 -4 -87 53
-90 265 -326 594 -600 837 -37 33 -48 51 -63 105 -9 36 -42 117 -73 180 -108
225 -127 274 -139 363 -22 163 236 269 527 217z"/>
</g>
</svg>
