<?xml version="1.0" standalone="no"?>
<!DOCTYPE svg PUBLIC "-//W3C//DTD SVG 20010904//EN"
 "http://www.w3.org/TR/2001/REC-SVG-20010904/DTD/svg10.dtd">
<svg version="1.0" xmlns="http://www.w3.org/2000/svg"
 width="1212.000000pt" height="1212.000000pt" viewBox="0 0 1212.000000 1212.000000"
 preserveAspectRatio="xMidYMid meet">
<metadata>
Created by potrace 1.14, written by Peter Selinger 2001-2017
</metadata>
<g transform="translate(0.000000,1212.000000) scale(0.100000,-0.100000)"
fill="#000000" stroke="none">
<path d="M3739 11636 c-2 -2 -35 -7 -74 -10 -278 -22 -555 -114 -705 -235
-293 -237 -402 -608 -394 -1351 2 -157 5 -303 8 -325 2 -22 7 -87 11 -145 4
-58 9 -118 11 -135 2 -16 6 -64 9 -105 3 -41 8 -91 10 -110 5 -36 11 -88 20
-175 5 -52 9 -86 25 -215 5 -41 12 -97 15 -125 4 -27 8 -57 10 -65 2 -8 7 -40
10 -70 8 -74 52 -384 70 -495 17 -106 25 -158 30 -201 4 -25 53 -334 70 -434
2 -14 7 -43 10 -65 14 -89 16 -102 25 -150 5 -27 11 -61 14 -75 2 -14 7 -41
10 -60 3 -19 8 -48 11 -65 3 -16 15 -84 26 -150 12 -66 23 -129 24 -141 2 -11
8 -45 14 -75 6 -30 13 -65 15 -79 3 -14 10 -50 15 -80 6 -30 13 -64 15 -75 43
-222 99 -450 143 -584 66 -203 140 -308 250 -356 122 -54 123 -80 9 -235 -23
-30 -43 -57 -46 -60 -3 -3 -46 -57 -95 -120 -49 -63 -92 -117 -95 -120 -3 -3
-41 -50 -85 -105 -82 -103 -266 -324 -320 -384 -42 -47 -45 -51 -87 -98 l-36
-41 -82 87 c-142 149 -569 591 -915 946 -59 61 -199 205 -311 321 l-204 210
-403 -2 c-221 -1 -429 -5 -462 -7 -165 -15 -194 -19 -248 -34 -55 -15 -58 -18
-52 -41 3 -14 22 -49 40 -77 53 -80 149 -190 325 -375 93 -98 118 -128 197
-231 174 -227 319 -470 565 -949 182 -353 232 -449 318 -605 31 -55 108 -190
129 -225 84 -137 163 -256 218 -325 96 -122 162 -191 228 -240 22 -17 42 -33
45 -36 16 -21 178 -90 254 -108 191 -47 263 -109 421 -366 202 -328 396 -574
683 -865 297 -302 440 -403 684 -485 179 -59 588 -157 802 -191 21 -3 47 -8
57 -10 11 -2 27 -6 37 -8 9 -2 37 -7 62 -10 25 -3 56 -8 70 -11 13 -2 40 -7
60 -10 20 -3 47 -8 60 -10 14 -3 45 -8 70 -11 25 -3 52 -7 60 -9 8 -2 42 -7
75 -10 33 -4 67 -8 75 -10 8 -3 38 -7 65 -10 46 -5 87 -10 155 -20 24 -4 56
-7 180 -21 30 -3 64 -7 76 -9 11 -2 52 -6 90 -9 38 -4 87 -9 109 -11 22 -2 72
-7 110 -10 39 -3 89 -8 112 -10 40 -4 118 -10 253 -20 376 -27 1001 -27 1250
-1 19 2 73 7 120 11 47 3 92 8 100 10 8 2 51 6 95 10 44 3 87 8 95 10 8 2 47
6 85 10 39 3 81 8 95 10 14 2 52 7 85 10 33 3 67 8 75 10 8 2 36 6 63 9 26 3
68 9 95 12 26 3 54 7 62 9 8 2 38 7 65 10 52 7 61 8 165 24 36 6 83 13 105 16
78 11 338 58 560 101 251 48 552 128 643 170 72 34 187 114 323 223 398 323
717 683 957 1081 187 310 331 671 368 923 2 18 8 52 11 77 4 25 7 119 7 210 0
154 -2 170 -27 244 -54 155 -204 421 -412 731 -179 267 -260 374 -530 710
-129 161 -199 273 -188 302 7 19 45 33 91 33 32 0 44 8 93 59 73 77 137 207
183 371 29 102 101 418 120 520 3 14 20 108 40 210 31 164 100 554 112 635 7
50 36 229 40 250 2 11 6 40 9 65 3 25 8 56 10 70 3 14 7 43 11 65 3 22 7 51 9
65 3 14 7 41 9 60 3 19 14 98 25 175 11 77 23 163 26 190 3 28 8 61 10 75 18
126 21 148 31 230 4 36 8 67 9 70 1 3 5 39 9 80 5 41 10 82 11 91 2 8 6 49 10
90 3 41 8 81 10 89 2 8 6 47 10 85 3 39 8 88 10 110 10 87 14 132 30 315 2 25
7 92 10 150 3 58 8 129 10 159 25 346 23 905 -4 999 -5 17 -8 32 -6 32 9 0
-60 181 -103 269 -199 410 -557 583 -1212 584 -136 0 -409 -10 -445 -17 -11
-2 -56 -7 -100 -10 -74 -6 -126 -12 -200 -21 -16 -2 -68 -9 -115 -15 -47 -5
-96 -12 -110 -14 -14 -2 -43 -7 -65 -10 -22 -3 -51 -8 -65 -10 -14 -3 -43 -7
-65 -10 -50 -7 -241 -35 -274 -41 -29 -5 -94 -14 -141 -20 -136 -17 -208 -26
-230 -30 -14 -2 -52 -6 -85 -10 -33 -3 -76 -8 -95 -10 -176 -19 -392 -37 -610
-50 -377 -23 -1116 -23 -1430 0 -30 2 -91 7 -135 10 -172 12 -231 16 -260 20
-16 2 -66 7 -110 11 -44 3 -87 7 -95 9 -8 2 -46 6 -85 10 -38 4 -81 9 -95 11
-14 2 -45 6 -70 10 -25 3 -92 12 -150 20 -58 8 -123 17 -145 20 -22 3 -78 12
-125 19 -47 8 -105 17 -130 20 -25 3 -56 8 -70 10 -14 3 -43 7 -65 10 -89 12
-121 16 -145 20 -14 2 -47 6 -75 10 -27 3 -63 7 -80 9 -16 2 -59 7 -95 11 -36
3 -72 8 -80 10 -8 2 -60 7 -115 11 -55 3 -109 8 -120 11 -25 5 -551 14 -556 9z
m391 -491 c69 -3 145 -8 170 -10 25 -3 74 -7 110 -10 36 -3 83 -8 105 -10 98
-10 242 -27 265 -30 25 -4 78 -10 168 -20 26 -3 58 -7 72 -10 14 -3 46 -7 72
-10 26 -3 62 -7 80 -10 18 -2 71 -9 118 -16 47 -6 96 -13 110 -14 14 -2 50 -7
80 -10 30 -3 62 -8 70 -10 8 -2 40 -7 70 -10 30 -4 64 -8 75 -10 11 -2 45 -6
75 -10 30 -3 102 -12 160 -20 58 -8 137 -17 175 -20 39 -3 77 -8 85 -10 8 -2
51 -7 95 -11 44 -3 87 -8 95 -9 8 -2 51 -6 95 -10 44 -4 90 -8 103 -10 12 -2
62 -7 110 -10 48 -4 103 -9 122 -11 245 -26 651 -25 910 1 58 6 192 17 235 20
50 4 149 14 184 19 14 2 62 7 106 11 44 4 87 8 95 10 15 2 93 12 180 21 25 3
61 7 80 9 19 3 51 7 70 10 19 2 69 9 110 14 41 6 93 13 115 15 54 7 182 24
225 30 30 5 207 29 305 41 17 2 64 9 105 15 41 5 95 12 120 15 25 3 61 7 80
10 69 9 196 24 250 30 30 4 66 8 80 10 14 2 61 7 105 10 44 4 94 9 110 11 84
13 426 12 510 -1 389 -60 556 -225 631 -622 25 -134 29 -168 49 -398 27 -323
28 -973 0 -1385 -10 -154 -16 -229 -20 -270 -2 -25 -7 -83 -11 -130 -3 -47 -7
-98 -9 -115 -2 -16 -9 -79 -15 -140 -6 -60 -13 -126 -15 -145 -2 -19 -7 -60
-10 -90 -3 -30 -8 -72 -10 -92 -3 -21 -7 -55 -10 -75 -2 -21 -7 -56 -9 -78 -3
-22 -8 -60 -11 -85 -8 -68 -46 -336 -50 -350 0 -3 -5 -32 -9 -65 -4 -32 -9
-66 -11 -75 -3 -17 -15 -91 -20 -130 -5 -34 -64 -389 -69 -420 -13 -68 -56
-310 -61 -343 -14 -89 -76 -309 -100 -359 -48 -95 -80 -103 -170 -44 -89 58
-113 68 -170 66 -86 -3 -107 1 -161 28 -33 17 -86 54 -119 82 -101 88 -124 95
-310 95 -142 0 -246 -6 -355 -20 -19 -3 -56 -7 -82 -10 -27 -3 -67 -7 -90 -10
-24 -2 -68 -7 -98 -10 -30 -3 -71 -7 -90 -10 -91 -12 -483 -39 -725 -50 -161
-7 -438 -16 -610 -20 -195 -5 -1426 -5 -1575 -1 -371 12 -588 20 -780 32 -52
3 -126 7 -165 9 -38 2 -99 6 -135 9 -155 13 -207 18 -235 21 -16 2 -59 7 -95
10 -36 4 -78 9 -95 11 -16 2 -59 6 -95 9 -36 4 -76 8 -90 10 -89 13 -206 20
-345 20 -186 0 -201 -4 -325 -99 -135 -103 -213 -130 -318 -113 -47 8 -82 -8
-117 -53 -53 -68 -104 -74 -163 -17 -47 46 -76 102 -100 198 -19 76 -59 263
-67 314 -2 11 -17 103 -34 205 -18 102 -34 199 -37 215 -2 17 -6 41 -9 55 -2
14 -7 45 -10 70 -4 25 -8 57 -10 71 -3 14 -7 43 -10 65 -6 47 -25 179 -31 214
-2 14 -11 79 -19 145 -20 155 -25 194 -30 225 -4 26 -11 85 -20 168 -3 26 -8
63 -10 82 -3 19 -8 53 -10 75 -11 96 -21 183 -30 253 -2 20 -7 66 -10 102 -3
36 -8 76 -10 90 -4 22 -8 71 -20 210 -2 19 -5 58 -9 85 -3 28 -8 88 -11 135
-3 47 -8 96 -10 110 -2 14 -7 84 -11 155 -3 72 -8 157 -10 190 -5 85 -5 671 0
725 2 25 7 89 11 143 3 54 8 106 10 116 2 9 6 47 9 83 4 37 9 77 11 89 3 13 7
41 11 64 20 143 72 328 119 427 35 75 121 176 191 224 52 36 145 80 185 88 8
2 25 6 39 9 49 13 86 18 185 24 55 3 101 6 102 7 3 3 119 -1 263 -9z"/>
<path d="M7237 9084 c-1 -1 -35 -5 -75 -8 -246 -23 -424 -125 -534 -307 -141
-233 -85 -509 148 -731 42 -40 103 -98 135 -129 42 -39 59 -63 59 -81 0 -50
-95 -118 -236 -168 -61 -21 -210 -65 -254 -74 -475 -96 -820 -217 -1140 -397
-36 -20 -81 -45 -100 -56 -60 -32 -140 -83 -285 -181 -423 -285 -577 -440
-603 -606 -12 -75 -7 -91 31 -109 64 -29 214 -68 322 -83 17 -2 44 -7 60 -10
17 -3 48 -7 70 -10 22 -3 49 -7 60 -8 81 -15 146 -23 235 -32 30 -3 71 -7 90
-9 60 -8 282 -29 410 -40 98 -9 289 -23 380 -29 57 -4 157 -11 310 -21 368
-25 1099 -25 1650 0 36 1 133 6 215 9 83 4 177 9 210 11 33 2 112 7 175 10
214 12 421 26 595 40 33 3 87 8 120 10 33 3 76 7 95 10 19 2 69 7 110 10 41 4
86 8 100 10 14 2 50 7 80 10 30 3 66 7 80 10 14 3 41 7 60 10 19 3 46 8 60 10
14 3 39 7 55 9 98 12 180 48 193 84 16 48 -13 175 -61 267 -41 77 -218 257
-347 351 -378 278 -921 535 -1418 670 -51 14 -100 27 -110 29 -124 24 -350 83
-462 122 -136 46 -190 83 -190 126 0 49 55 132 159 240 133 137 147 154 194
230 65 106 85 227 56 328 -23 77 -91 180 -179 269 -143 146 -239 193 -419 208
-56 4 -103 7 -104 6z m143 -228 c112 -28 180 -62 253 -126 71 -63 99 -121 100
-205 1 -88 -5 -112 -48 -180 -101 -158 -253 -236 -450 -230 -152 4 -312 72
-385 165 -106 134 -96 308 24 438 62 67 164 122 261 142 64 13 185 10 245 -4z"/>
</g>
</svg>
